# xmcd
#
# Track frame offsets:
#	150
#	16113
#	39395
#	56250
#	74999
#	98874
#	119010
#	136261
#	152957
#	172262
#	190001
#
# Disc length: 2700 seconds
# Revision: 0
# Processed by: cddbd v1.5.2PL0 Copyright (c) Steve Scherf et al.
# Submitted via: dBpowerAMP V12.0
#
DISCID=9b0a8a0b
DTITLE=Darcy Wilkin - Bristol
DYEAR=2020
DGENRE=Americana
TTITLE0=When The River Meets The Sea
TTITLE1=I've Got Plans
TTITLE2=Bristol
TTITLE3=Beyond All Repair
TTITLE4=Carry Me Away
TTITLE5=The Cuckoo
TTITLE6=Restless Mind
TTITLE7=Pavilion Estates
TTITLE8=Waiting For The Wildflowers
TTITLE9=Hard Circus
TTITLE10=For A While
EXTD=
EXTT0=
EXTT1=
EXTT2=
EXTT3=
EXTT4=
EXTT5=
EXTT6=
EXTT7=
EXTT8=
EXTT9=
EXTT10=
PLAYORDER=
